<?xml version="1.0" encoding="UTF-8" standalone="no"?>
<!DOCTYPE svg PUBLIC "-//W3C//DTD SVG 1.1//EN" "http://www.w3.org/Graphics/SVG/1.1/DTD/svg11.dtd">
<svg width="100%" height="100%" viewBox="0 0 512 512" version="1.1" xmlns="http://www.w3.org/2000/svg" xmlns:xlink="http://www.w3.org/1999/xlink" xml:space="preserve" xmlns:serif="http://www.serif.com/" style="fill-rule:evenodd;clip-rule:evenodd;stroke-linejoin:round;stroke-miterlimit:2;">
    <g transform="matrix(0.562007,0,0,0.562007,-333.515,-28.5537)">
        <path d="M775.644,404.977C726.216,429.961 694.518,480.519 693.558,535.887C692.463,595.283 726.774,649.879 780.76,674.659C830.86,697.723 889.919,691.246 933.831,657.866C937.266,655.437 941.315,654.002 945.422,653.201C947.993,652.7 950.679,652.43 953.295,652.328C954.082,652.299 955.112,652.279 955.895,652.279L1142,652.279L1142.88,652.284C1143.62,652.294 1144.7,652.326 1145.44,652.366C1147.9,652.495 1150.43,652.781 1152.84,653.273C1156.82,654.086 1160.73,655.508 1164.07,657.866C1207.35,690.769 1265.43,697.569 1315.13,675.561C1370.21,651.247 1405.44,596.08 1404.34,535.887C1403.38,480.517 1371.68,429.961 1322.25,404.977C1322.23,404.662 1322.3,399.403 1322.2,399.284C1322.09,398.634 1321.81,398.047 1321.43,397.585L1321.18,397.306L1320.9,397.058C1320.67,396.79 1318.61,395.808 1318.3,395.629C1315.08,394.008 1311.43,392.332 1308.11,390.959C1297.37,386.523 1285.97,383.353 1274.47,381.675C1268.97,380.873 1263.17,380.384 1257.62,380.257C1256.58,380.236 1254.49,380.217 1253.45,380.225C1253.25,380.304 1173.11,380.159 1172.91,380.232L1172.51,380.279L1172.1,380.376L1171.78,380.486L1171.45,380.638L1171.2,380.784L1170.96,380.951L1170.73,381.138L1170.51,381.344L1170.32,381.566L1170.14,381.803L1169.98,382.052C1169.93,382.148 1169.91,382.18 1169.91,382.18C1169.66,382.663 1169.55,383.135 1169.51,383.605L1169.5,383.863L1169.5,388.834L1061.02,388.834L1061.02,324.308L1036.88,324.308L1036.88,388.833L928.394,388.833C928.382,388.562 928.427,383.492 928.36,383.368L928.287,382.988L928.17,382.607L928.067,382.356L927.944,382.11L927.801,381.872L927.638,381.643L927.458,381.426L927.26,381.224L927.048,381.038L926.823,380.869L926.466,380.652L926.219,380.532L925.968,380.433L925.587,380.322L925.333,380.272C922.441,380.187 838.797,380.161 838.184,380.321C832.614,380.533 826.811,381.112 821.308,382.002C810.543,383.743 799.864,386.798 789.786,390.96C786.466,392.333 782.806,394.011 779.599,395.63L777.594,396.662L777.285,396.843L777.087,396.983L776.804,397.221L776.542,397.491C776.086,398.017 775.82,398.609 775.704,399.226C775.588,399.405 775.664,404.672 775.644,404.977ZM1282.94,590.337C1282.97,580.836 1278.07,571.791 1270.11,566.617C1255.54,557.14 1236.02,562.813 1228.81,578.618C1225.44,585.976 1225.44,594.699 1228.81,602.057C1236.03,617.862 1255.54,623.535 1270.11,614.058C1278.07,608.883 1282.97,599.838 1282.94,590.337ZM824.642,517.975L824.642,485.32C824.642,485.091 824.66,484.878 824.684,484.701C824.778,484.008 825.033,483.361 825.386,482.823L825.59,482.536L825.816,482.264L826.063,482.01L826.329,481.777L826.611,481.565C827.382,481.03 828.276,480.767 829.155,480.756L863.586,480.756C863.845,480.757 864.007,480.773 864.205,480.798C864.904,480.892 865.541,481.147 866.083,481.5L866.37,481.704L866.642,481.93L866.896,482.177L867.129,482.443L867.341,482.725C867.758,483.332 867.999,483.979 868.101,484.648C868.135,484.878 868.148,485.087 868.15,485.269L868.15,517.974L900.805,517.974C901.034,517.974 901.247,517.992 901.424,518.016C902.117,518.11 902.764,518.365 903.302,518.718L903.589,518.922L903.861,519.149L904.114,519.396L904.347,519.662L904.559,519.944C905.094,520.715 905.357,521.609 905.368,522.488L905.368,556.919C905.367,557.178 905.351,557.34 905.326,557.538C905.232,558.237 904.977,558.874 904.624,559.416L904.42,559.703L904.193,559.975L903.946,560.229L903.68,560.462L903.398,560.674C902.791,561.091 902.144,561.332 901.475,561.434C901.245,561.468 901.036,561.481 900.854,561.483L868.149,561.483L868.149,594.138C868.149,594.367 868.131,594.58 868.107,594.757C868.013,595.45 867.758,596.097 867.405,596.635L867.201,596.922L866.975,597.194L866.728,597.448L866.462,597.681L866.18,597.893C865.409,598.428 864.515,598.691 863.636,598.702L829.205,598.702C828.946,598.701 828.784,598.685 828.586,598.66C827.887,598.566 827.25,598.311 826.708,597.958L826.421,597.754L826.149,597.528L825.895,597.281L825.662,597.015L825.45,596.733C825.033,596.126 824.792,595.479 824.69,594.81C824.656,594.58 824.643,594.371 824.641,594.189L824.641,561.484L791.987,561.484C791.758,561.484 791.545,561.466 791.368,561.442C790.675,561.348 790.028,561.093 789.49,560.74L789.203,560.536L788.931,560.31L788.677,560.063L788.444,559.797L788.232,559.515C787.697,558.744 787.434,557.85 787.423,556.971L787.423,522.54C787.424,522.281 787.44,522.119 787.465,521.921C787.559,521.222 787.814,520.585 788.167,520.043L788.371,519.756L788.597,519.484L788.844,519.23L789.11,518.997L789.392,518.785C789.999,518.368 790.646,518.127 791.315,518.025C791.545,517.991 791.754,517.978 791.936,517.976C791.987,517.975 824.642,517.975 824.642,517.975ZM1040.59,566.024C1036.47,569.486 1036.13,575.697 1039.79,579.585C1041.91,581.853 1045.03,582.901 1048.07,582.418C1048.94,582.278 1049.81,582.011 1050.61,581.629C1051.15,581.379 1051.78,580.986 1052.2,580.671C1052.34,580.56 1052.48,580.463 1052.53,580.413C1052.61,580.347 1082.71,555.087 1082.71,555.087C1083.57,554.368 1084.24,553.546 1084.76,552.674C1086.91,549.042 1086.32,544.359 1083.37,541.373C1081.09,539.034 1077.69,538.075 1074.54,538.831C1073.61,539.043 1072.62,539.463 1071.82,539.958C1071.48,540.171 1071.17,540.382 1070.94,540.568C1070.74,540.674 1040.73,565.944 1040.59,566.024ZM962.714,566.024C958.59,569.486 958.253,575.697 961.908,579.585C964.031,581.853 967.153,582.901 970.188,582.418C971.067,582.278 971.93,582.011 972.734,581.629C973.276,581.379 973.906,580.986 974.322,580.671C974.458,580.56 974.599,580.463 974.652,580.413C974.732,580.347 1004.84,555.087 1004.84,555.087C1005.7,554.368 1006.36,553.546 1006.88,552.674C1009.03,549.042 1008.45,544.359 1005.5,541.373C1003.21,539.034 999.815,538.075 996.664,538.831C995.732,539.043 994.74,539.463 993.938,539.958C993.603,540.171 993.29,540.382 993.06,540.568C992.862,540.674 962.852,565.944 962.714,566.024ZM1344.62,538.583C1344.65,529.082 1339.75,520.037 1331.78,514.863C1317.22,505.386 1297.7,511.059 1290.49,526.864C1287.12,534.222 1287.12,542.945 1290.49,550.303C1297.7,566.108 1317.22,571.781 1331.78,562.304C1339.75,557.128 1344.65,548.084 1344.62,538.583ZM1221.26,538.583C1221.29,529.082 1216.39,520.037 1208.43,514.863C1193.87,505.386 1174.35,511.059 1167.13,526.864C1163.76,534.222 1163.76,542.945 1167.13,550.303C1174.35,566.108 1193.87,571.781 1208.43,562.304C1216.39,557.128 1221.29,548.084 1221.26,538.583ZM1282.94,486.829C1282.97,496.33 1278.07,505.375 1270.11,510.549C1255.54,520.026 1236.02,514.353 1228.81,498.548C1225.44,491.19 1225.44,482.467 1228.81,475.109C1236.03,459.304 1255.54,453.631 1270.11,463.108C1278.07,468.283 1282.97,477.328 1282.94,486.829Z" style="fill:white;"/>
    </g>
</svg>
